<svg id="Layer_1" height="512" viewBox="0 0 128 128" width="512" xmlns="http://www.w3.org/2000/svg" data-name="Layer 1"><g fill="#fed33c"><path d="m64 21.026a1.751 1.751 0 0 0 -1.75 1.75v13.084a1.75 1.75 0 0 0 3.5 0v-13.084a1.751 1.751 0 0 0 -1.75-1.75z"/><path d="m84.27 29.423a1.748 1.748 0 0 0 -2.474 0l-9.252 9.251a1.75 1.75 0 1 0 2.475 2.475l9.251-9.249a1.749 1.749 0 0 0 0-2.477z"/><path d="m46.2 29.423a1.75 1.75 0 1 0 -2.471 2.477l9.252 9.251a1.75 1.75 0 1 0 2.475-2.475z"/><path d="m105.116 55.2a5.874 5.874 0 0 0 -4.436 4.209 5.793 5.793 0 0 0 .052 3.255 2.173 2.173 0 0 1 -.787 2.415l-18.797 13.621-12.815-21.042a2.2 2.2 0 0 1 .335-2.675 6.448 6.448 0 1 0 -9.305.032 2.167 2.167 0 0 1 .306 2.639l-12.817 21.046-18.8-13.624a2.173 2.173 0 0 1 -.787-2.415 5.8 5.8 0 0 0 .052-3.255 5.892 5.892 0 1 0 -7.195 7.247 5.972 5.972 0 0 0 2.235.149 2.122 2.122 0 0 1 2.2 1.4l11.2 29.755h56.484l11.2-29.755a2.122 2.122 0 0 1 2.2-1.4 5.972 5.972 0 0 0 2.235-.149 5.893 5.893 0 0 0 -2.76-11.453z"/></g><path d="m35.759 97.957h56.481v7.266h-56.481z" fill="#4c97fc"/><path d="m69.421 81.961-5.421 8.421-5.421-8.421 5.421-8.422z" fill="#fc4d4f"/><path d="m36.678 71.328 5.821-13.177 10.413 10.599-6.061 9.951z" fill="#feb500"/><path d="m91.322 71.328-5.821-13.177-10.413 10.599 6.061 9.951z" fill="#feb500"/></svg>